<svg xmlns="http://www.w3.org/2000/svg" width="118.63" height="37.8"><defs><style>.a{fill:#171b1d}</style></defs><path class="a" d="M48.63 14.17V6.78a1.64 1.64 0 00-.09-.67C48.48 6 48.32 6 48.06 6a1.88 1.88 0 00-1 .23 3.66 3.66 0 00-.67.65c-.23.27-.43.4-.6.4a.52.52 0 01-.4-.15.61.61 0 01-.14-.44 3.3 3.3 0 01.07-.49 2.68 2.68 0 01.35-1.26 1.41 1.41 0 01.65-.09h7.31a1.36 1.36 0 01.64.09 3 3 0 01.36 1.26 3.3 3.3 0 01.07.49.66.66 0 01-.14.44.54.54 0 01-.4.15c-.17 0-.37-.13-.6-.4a4 4 0 00-.67-.65A1.9 1.9 0 0051.8 6c-.25 0-.41 0-.48.16a1.64 1.64 0 00-.09.67v7.39a2.56 2.56 0 00.05.58.41.41 0 00.21.27l.16.09a1.66 1.66 0 01.26.21.48.48 0 01.08.29c0 .35-.23.53-.7.53h-2.72c-.46 0-.69-.18-.69-.53a.43.43 0 01.07-.28 1.89 1.89 0 01.27-.22l.16-.09a.41.41 0 00.21-.27 2.71 2.71 0 00.04-.63zM55.46 15.08l.08-.05a.23.23 0 01.11 0 1.27 1.27 0 00.27-.35 3.85 3.85 0 00.16-.54c.12-.5.27-1 .43-1.57s.35-1.1.54-1.67.39-1.1.57-1.57.39-1 .63-1.57a6.12 6.12 0 00.47-1.31.36.36 0 00-.08-.25 1.36 1.36 0 00-.24-.2 1 1 0 01-.25-.26.69.69 0 01-.09-.38c0-.35.27-.53.8-.53h6c.47 0 .7.18.7.53a.45.45 0 01-.07.28 1.83 1.83 0 01-.27.21l-.16.1a.41.41 0 00-.21.27 2.56 2.56 0 000 .58v7.4a1.08 1.08 0 00.12.6 1 1 0 00.41.31.53.53 0 01.23.28 2.9 2.9 0 01.17.74 6 6 0 01.06.73.65.65 0 01-.14.43.49.49 0 01-.4.16c-.17 0-.37-.14-.6-.41a3.94 3.94 0 00-.67-.64 1.82 1.82 0 00-1-.23h-5.14a1.8 1.8 0 00-1 .23 4 4 0 00-.68.64c-.23.27-.43.41-.6.41a.51.51 0 01-.4-.16.65.65 0 01-.14-.43 1 1 0 010-.25 1.52 1.52 0 000-.24 3.17 3.17 0 01.11-.7 1.12 1.12 0 01.28-.59zm2.73-.08h3.48c.38 0 .58-.27.58-.82v-7.3a1 1 0 00-.25-.76 1.18 1.18 0 00-.81-.2h-.29a1 1 0 00-.8.45 7.64 7.64 0 00-.75 1.4c-.32.74-.63 1.53-.92 2.37s-.53 1.65-.72 2.41a8.19 8.19 0 00-.28 1.74.79.79 0 00.16.52.71.71 0 00.6.19zM78 16.37a5.61 5.61 0 01-2.14-.44 5.47 5.47 0 01-1.83-1.23 5.9 5.9 0 01-1.62-4.26 6.07 6.07 0 01.75-3 5.45 5.45 0 012-2.1 5.55 5.55 0 012.83-.75 5.92 5.92 0 012.29.41 5.4 5.4 0 013 3.07 6.18 6.18 0 01.44 2.38 6.21 6.21 0 01-.45 2.37 5.72 5.72 0 01-1.25 1.89 5.87 5.87 0 01-1.85 1.23 5.68 5.68 0 01-2.17.43zm0-1.18a2.25 2.25 0 001.72-.71 4.14 4.14 0 00.93-1.79A8.88 8.88 0 0081 10.5a9 9 0 00-.27-2.2 4.2 4.2 0 00-.93-1.82 2.15 2.15 0 00-1.7-.73 2.1 2.1 0 00-1.35.46 3.34 3.34 0 00-1 1.25 6.78 6.78 0 00-.56 2.93 10 10 0 00.17 1.61 6.19 6.19 0 00.47 1.55 3.23 3.23 0 00.89 1.18 2.11 2.11 0 001.35.46zM88.58 11.75v2.42a2.71 2.71 0 000 .58.48.48 0 00.21.27l.16.09a1.29 1.29 0 01.26.21.42.42 0 01.08.29c0 .35-.23.53-.69.53h-2.68c-.47 0-.7-.18-.7-.53a.43.43 0 01.08-.28 1.69 1.69 0 01.26-.22l.16-.09a.41.41 0 00.21-.27 2.56 2.56 0 000-.58v-7.4a2.56 2.56 0 000-.58.41.41 0 00-.21-.27l-.16-.1a1.44 1.44 0 01-.27-.22.41.41 0 01-.07-.27c0-.35.23-.53.7-.53h2.72c.46 0 .69.18.69.53a.45.45 0 01-.07.28 1.41 1.41 0 01-.27.21l-.16.1a.43.43 0 00-.21.26 2.81 2.81 0 000 .59v3.54l2.34-2c1.04-1.16 1.6-1.86 1.6-2.15a.29.29 0 00-.07-.22 1.31 1.31 0 00-.23-.18.78.78 0 01-.23-.2.41.41 0 01-.03-.28c0-.32.22-.48.65-.48h1.76a1.7 1.7 0 01.57.09.52.52 0 01.33.52c0 .21-.16.39-.47.55a2.72 2.72 0 00-.64.46c-.14.16-.37.44-.67.84l-1.91 2.08a16.7 16.7 0 011.19 1.5c.39.55.75 1.1 1.09 1.67s.67 1.17 1 1.81a2.89 2.89 0 00.29.5 1 1 0 00.36.29 1.44 1.44 0 01.32.24.54.54 0 01.08.34c0 .3-.23.45-.68.45h-2.72c-.59 0-.89-.17-.89-.52a.44.44 0 01.07-.27l.25-.24c.12-.1.18-.19.18-.26a2.85 2.85 0 00-.46-1.16A17.66 17.66 0 0090.63 12a12.24 12.24 0 00-.94-1.21zM100.06 14.17V6.78a1.64 1.64 0 00-.09-.67C99.91 6 99.75 6 99.49 6a1.88 1.88 0 00-1 .23 3.66 3.66 0 00-.67.65c-.23.27-.43.4-.6.4a.52.52 0 01-.4-.15.61.61 0 01-.14-.44 3.3 3.3 0 01.07-.49 2.68 2.68 0 01.35-1.26 1.41 1.41 0 01.65-.09H105a1.36 1.36 0 01.64.09 3 3 0 01.36 1.21 3.3 3.3 0 01.07.49.66.66 0 01-.14.44.54.54 0 01-.4.15c-.17 0-.37-.13-.6-.4a4 4 0 00-.67-.65 1.9 1.9 0 00-1-.23c-.25 0-.41 0-.48.16a1.64 1.64 0 00-.09.67v7.39a2.56 2.56 0 000 .58.41.41 0 00.21.27l.16.09a1.66 1.66 0 01.26.21.48.48 0 01.08.29c0 .35-.23.53-.7.53H100c-.46 0-.69-.18-.69-.53a.43.43 0 01.07-.28 1.44 1.44 0 01.27-.22l.16-.09a.44.44 0 00.21-.27 2.71 2.71 0 00.04-.58zM112.88 16.37a5.73 5.73 0 01-4-1.67 5.94 5.94 0 01-1.61-4.26 6.07 6.07 0 01.75-3 5.38 5.38 0 012-2.1 5.52 5.52 0 012.83-.75 5.83 5.83 0 012.21.42 5.45 5.45 0 013.06 3.07 6.38 6.38 0 01.44 2.38 6.21 6.21 0 01-.45 2.37 5.72 5.72 0 01-1.25 1.89 6 6 0 01-1.85 1.23 5.72 5.72 0 01-2.13.42zm.05-1.18a2.25 2.25 0 001.72-.71 4.12 4.12 0 00.92-1.79 8.88 8.88 0 00.27-2.19 9 9 0 00-.27-2.2 4.18 4.18 0 00-.92-1.82 2.17 2.17 0 00-1.71-.73 2.1 2.1 0 00-1.34.46 3.46 3.46 0 00-1 1.25 6.93 6.93 0 00-.55 2.93 9 9 0 00.14 1.62 6.19 6.19 0 00.47 1.55 3.13 3.13 0 00.89 1.18 2.07 2.07 0 001.38.45zM48.63 31.75v-7.38a1.67 1.67 0 00-.09-.68c-.06-.1-.22-.16-.48-.16a1.88 1.88 0 00-1 .23 4 4 0 00-.67.65c-.23.27-.43.41-.6.41a.53.53 0 01-.4-.16.6.6 0 01-.14-.43 3.36 3.36 0 01.07-.5 2.62 2.62 0 01.35-1.25 1.41 1.41 0 01.65-.09h7.31a1.36 1.36 0 01.64.09 2.88 2.88 0 01.36 1.25 3.36 3.36 0 01.07.5.65.65 0 01-.14.43.54.54 0 01-.4.16c-.17 0-.37-.14-.6-.41a4.46 4.46 0 00-.67-.65 1.9 1.9 0 00-1.05-.23.57.57 0 00-.48.16 1.67 1.67 0 00-.09.68v7.38a2.56 2.56 0 00.05.58.41.41 0 00.21.27l.16.1a1 1 0 01.26.21.43.43 0 01.08.28c0 .35-.23.53-.7.53h-2.76c-.46 0-.69-.18-.69-.53a.43.43 0 01.07-.28 1.41 1.41 0 01.27-.21l.16-.1a.41.41 0 00.21-.27 2.71 2.71 0 00.04-.58zM59.12 29.45v2.33a2.1 2.1 0 00.08.51.55.55 0 00.17.25l.38.19a.71.71 0 01.27.18.52.52 0 01.08.33c0 .2-.06.33-.2.39a1.61 1.61 0 01-.63.09h-2.81c-.46 0-.7-.18-.7-.53a.43.43 0 01.08-.28 1.14 1.14 0 01.27-.21l.15-.1a.41.41 0 00.21-.27 2.56 2.56 0 00.05-.58v-7.4a2.56 2.56 0 00-.05-.58.41.41 0 00-.21-.27l-.15-.09a1.44 1.44 0 01-.27-.22.43.43 0 01-.08-.28c0-.35.24-.52.7-.52h4.42a8.3 8.3 0 011.47.11 3.73 3.73 0 011.24.43 2.8 2.8 0 011.09 1 2.84 2.84 0 01.39 1.5 3 3 0 01-.28 1.29 3.55 3.55 0 01-.75 1 4.66 4.66 0 01-1.08.76 6.56 6.56 0 01-1.76.63 14.23 14.23 0 01-2.08.34zm0-4.8v3.6a5.41 5.41 0 002.23-.82 2.14 2.14 0 00.94-1.87 2.24 2.24 0 00-.29-1.12 1.64 1.64 0 00-.73-.72 2.16 2.16 0 00-1.06-.25 1.24 1.24 0 00-.9.26 1.44 1.44 0 00-.19.92zM69.36 28.21v2.67a5.73 5.73 0 00.06 1 .8.8 0 00.27.48 1.18 1.18 0 00.6.21 8.63 8.63 0 001.18.06 4.13 4.13 0 001.18-.13 2 2 0 00.85-.64 7.42 7.42 0 01.51-.57.57.57 0 01.42-.17.51.51 0 01.36.14.5.5 0 01.15.37 5.08 5.08 0 01-.31 1.37.73.73 0 01-.94.71h-7c-.47 0-.7-.18-.7-.53a.43.43 0 01.07-.28 1.14 1.14 0 01.27-.21l.15-.1a.4.4 0 00.22-.27 2.71 2.71 0 000-.58v-7.4a2.71 2.71 0 000-.58.4.4 0 00-.22-.27l-.15-.09a1.17 1.17 0 01-.27-.23.41.41 0 01-.07-.27c0-.35.23-.52.7-.52h6.66a1.16 1.16 0 01.79.18 1.39 1.39 0 01.18.63 6.88 6.88 0 01.06.84c0 .44-.17.67-.51.67a.51.51 0 01-.34-.11 2.59 2.59 0 01-.32-.36 1.7 1.7 0 00-.9-.63 6.48 6.48 0 00-1.43-.12 3.69 3.69 0 00-1.18.12.5.5 0 00-.36.46V27h2.16a1.27 1.27 0 00.6-.1 2 2 0 00.36-.28.53.53 0 01.38-.19.38.38 0 01.41.3 2.76 2.76 0 01.09.77 4 4 0 01-.09 1 .41.41 0 01-.41.32.58.58 0 01-.39-.18 2.26 2.26 0 00-.37-.27 1.34 1.34 0 00-.58-.09zM79.41 31.09v.66a2.56 2.56 0 000 .58.48.48 0 00.21.27l.16.1a1 1 0 01.26.21.43.43 0 01.08.28c0 .35-.23.53-.7.53h-2.66c-.47 0-.7-.18-.7-.53a.45.45 0 01.07-.28 1.83 1.83 0 01.27-.21l.16-.1a.41.41 0 00.21-.27 2.56 2.56 0 000-.58v-7.4a2.56 2.56 0 000-.58.48.48 0 00-.21-.27l-.16-.09a1.9 1.9 0 01-.27-.23.41.41 0 01-.07-.27c0-.35.23-.52.7-.52h2.71c.47 0 .7.17.7.52a.39.39 0 01-.08.28 1.69 1.69 0 01-.26.22l-.16.09a.46.46 0 00-.21.26 2.73 2.73 0 000 .59v5.11l4.26-4.64v-.47a2.08 2.08 0 000-.58.41.41 0 00-.21-.27l-.15-.09a1.9 1.9 0 01-.27-.23.41.41 0 01-.07-.27c0-.35.23-.52.69-.52h2.72c.47 0 .7.17.7.52a.44.44 0 01-.08.28 1.69 1.69 0 01-.26.22l-.16.09a.39.39 0 00-.21.26 2.73 2.73 0 000 .59v7.4a2.56 2.56 0 000 .58.41.41 0 00.21.27l.16.1a1.18 1.18 0 01.26.21.43.43 0 01.08.28c0 .35-.23.53-.7.53h-2.82c-.46 0-.69-.18-.69-.53a.43.43 0 01.07-.28 1.14 1.14 0 01.27-.21l.15-.1a.46.46 0 00.22-.27 2.71 2.71 0 000-.58v-5.31zm4.5-11.6c.18 0 .28.13.28.39a1.49 1.49 0 01-.18.66 2.84 2.84 0 01-.38.62 2.53 2.53 0 01-2 .93 2.58 2.58 0 01-1.76-.68 2.82 2.82 0 01-.59-.73 1.67 1.67 0 01-.24-.83c0-.29.1-.44.3-.44s.27.15.49.46a3.22 3.22 0 00.72.75 1.83 1.83 0 001.13.29 2.08 2.08 0 001-.25 2.17 2.17 0 00.77-.7 2.3 2.3 0 01.15-.23.66.66 0 01.16-.17.27.27 0 01.15-.07zM88 32.66h.19a1.27 1.27 0 00.27-.35 4.05 4.05 0 00.16-.53c.12-.51.27-1 .43-1.58s.35-1.1.54-1.67.39-1.09.57-1.57.39-1 .63-1.56a6.31 6.31 0 00.5-1.4.37.37 0 00-.08-.25 1.36 1.36 0 00-.24-.21.87.87 0 01-.25-.26.69.69 0 01-.09-.38c0-.35.27-.52.8-.52h6c.47 0 .7.17.7.52a.45.45 0 01-.07.28 2.71 2.71 0 01-.27.22l-.16.09a.41.41 0 00-.21.27 2.56 2.56 0 000 .58v7.4a1.08 1.08 0 00.12.6.93.93 0 00.41.31.53.53 0 01.23.28 3 3 0 01.17.74 6.17 6.17 0 01.06.73.65.65 0 01-.14.43.49.49 0 01-.4.16c-.17 0-.37-.13-.6-.41a3.94 3.94 0 00-.67-.64 1.82 1.82 0 00-1-.23h-5.14a1.78 1.78 0 00-1 .23 4 4 0 00-.68.64c-.23.28-.43.41-.6.41a.51.51 0 01-.4-.16.65.65 0 01-.14-.43 1 1 0 010-.25 1.52 1.52 0 000-.24 3.17 3.17 0 01.11-.7 1.12 1.12 0 01.25-.55zm2.73-.09h3.48c.38 0 .58-.27.58-.82v-7.29a1 1 0 00-.21-.76 1.18 1.18 0 00-.81-.2h-.29a1 1 0 00-.8.45 7.8 7.8 0 00-.68 1.41c-.32.73-.63 1.52-.92 2.37s-.53 1.65-.72 2.4a8.17 8.17 0 00-.36 1.75.73.73 0 00.16.51.69.69 0 00.6.18z"/><g><path class="a" d="M24.3 9.79h-8.41v4.44h6.74a1 1 0 01.95.95v17.24a1 1 0 01-.95.95H5.39a1 1 0 01-.95-.95V15.18a.94.94 0 01.95-.95h2.55V9.79H3.72A3.72 3.72 0 000 13.51v20.58a3.71 3.71 0 003.72 3.71H24.3a3.71 3.71 0 003.7-3.71V13.51a3.72 3.72 0 00-3.7-3.72z"/><path class="a" d="M34 0H13.41a3.72 3.72 0 00-3.72 3.72v20.57A3.72 3.72 0 0013.41 28h8.4v-4.42h-6.73a1 1 0 01-.95-.95V5.38a1 1 0 01.95-.94h17.24a.94.94 0 011 .94v17.25a1 1 0 01-1 .95h-2.57V28H34a3.72 3.72 0 003.72-3.72V3.72A3.72 3.72 0 0034 0z"/></g></svg>